Coordinates
version=1
nRows=9
nColumns=32
inDegrees=yes

Units are S.I. units (second, meters, Newtons, ...)
If the header above contains a line with 'inDegrees', this indicates whether rotational values are in degrees (yes) or radians (no).

endheader
time	pelvis_tilt	pelvis_list	pelvis_rotation	pelvis_tx	pelvis_ty	pelvis_tz	hip_flexion_r	hip_adduction_r	hip_rotation_r	knee_angle_r	knee_adduction_r	med_cond_adduction_r	lat_cond_adduction_r	patella_r_constrained_knee_angle	ankle_angle_r	subtalar_angle_r	mtp_angle_r	hip_flexion_l	hip_adduction_l	hip_rotation_l	knee_angle_l	knee_adduction_l	med_cond_adduction_l	lat_cond_adduction_l	patella_l_constrained_knee_angle	ankle_angle_l	subtalar_angle_l	mtp_angle_l	lumbar_extension	lumbar_bending	lumbar_rotation
      2.92000000	     -3.61736320	      6.12525332	    -97.85049305	      0.26839121	      0.85014015	     -0.50147426	     -3.72203669	     -1.75263757	    -39.86929718	    -25.16799257	     -0.00000000	     -0.00000000	      0.00000000	     -0.43926434	      9.43431414	     19.81927482	      0.00000000	     34.09970694	     -6.38432004	    -11.49262588	     -6.85129877	     -0.00000000	      0.00000000	     -0.00000000	     -0.11957772	      0.36106324	     11.96412667	      0.00000000	      0.00000000	     -0.00000000	      0.00000000
      2.92500000	     -3.38043420	      5.90770793	    -97.85976226	      0.26899543	      0.84963741	     -0.49427087	     -4.23662819	     -2.24239971	    -39.86772683	    -25.50944455	      0.00000000	     -0.00000000	      0.00000000	     -0.44522380	      9.07951222	     19.81428359	     -0.00000000	     33.81101769	     -6.05298079	    -11.17255890	     -7.07208256	     -0.00000000	     -0.00000000	      0.00000000	     -0.12343113	     -0.00028876	     11.13739672	     -0.00000000	      0.00000000	     -0.00000000	      0.00000000
      2.93000000	     -3.11712820	      5.67708543	    -97.84687622	      0.26967024	      0.84922524	     -0.48698219	     -4.75601244	     -2.76658725	    -39.86634074	    -25.86462554	      0.00000000	     -0.00000000	      0.00000000	     -0.45142288	      8.66752948	     19.80884693	      0.00000000	     33.48250487	     -5.66589062	    -10.77843754	     -7.31402833	      0.00000000	     -0.00000000	      0.00000000	     -0.12765388	     -0.46649758	     10.10670161	      0.00000000	      0.00000000	     -0.00000000	      0.00000000
      2.93500000	     -2.84337549	      5.44016799	    -97.79847074	      0.27043485	      0.84884422	     -0.47966962	     -5.26990676	     -3.30555915	    -39.86497376	    -26.23619437	      0.00000000	     -0.00000000	      0.00000000	     -0.45790797	      8.20010562	     19.80265549	     -0.00000000	     33.14541153	     -5.23456391	    -10.25364314	     -7.60568813	      0.00000000	      0.00000000	     -0.00000000	     -0.13274430	     -0.97639624	      8.85131177	      0.00000000	      0.00000000	     -0.00000000	     -0.00000000
      2.94000000	     -2.50357762	      5.23727999	    -97.74880195	      0.27115250	      0.84853754	     -0.47216791	     -5.74494833	     -3.90955672	    -39.86301015	    -26.61442792	     -0.00000000	      0.00000000	     -0.00000000	     -0.46450940	      7.61235134	     19.79541132	     -0.00000000	     32.83777232	     -4.75925116	     -9.95956500	     -7.95503116	     -0.00000000	      0.00000000	     -0.00000000	     -0.13884149	     -1.56269930	      7.84412594	     -0.00000000	      0.00000000	     -0.00000000	     -0.00000000
      2.94500000	     -2.13470897	      5.02012514	    -97.67339001	      0.27192576	      0.84830942	     -0.46461080	     -6.22230397	     -4.54640148	    -39.86063934	    -27.00711331	     -0.00000000	      0.00000000	     -0.00000000	     -0.47136305	      6.96510025	     19.78756109	      0.00000000	     32.50486450	     -4.23074792	     -9.61130114	     -8.31856581	      0.00000000	      0.00000000	     -0.00000000	     -0.14518636	     -2.24219208	      6.67966986	      0.00000000	      0.00000000	      0.00000000	     -0.00000000
      2.95000000	     -1.78080390	      4.81383820	    -97.56032682	      0.27284599	      0.84812668	     -0.45702906	     -6.67761737	     -5.17392759	    -39.85910320	    -27.42327005	     -0.00000000	      0.00000000	     -0.00000000	     -0.47862635	      6.23400215	     19.77771202	     -0.00000000	     32.17086144	     -3.67368394	     -9.10153049	     -8.68342991	      0.00000000	      0.00000000	     -0.00000000	     -0.15155444	     -2.96686839	      5.28399199	     -0.00000000	      0.00000000	      0.00000000	     -0.00000000
      2.95500000	     -1.37688438	      4.59235441	    -97.43947637	      0.27376593	      0.84805006	     -0.44931954	     -7.14288707	     -5.85502145	    -39.85702487	    -27.84944697	      0.00000000	      0.00000000	     -0.00000000	     -0.48606454	      5.39017294	     19.76643259	      0.00000000	     31.81446292	     -3.06966778	     -8.75027261	     -9.07264609	     -0.00000000	      0.00000000	     -0.00000000	     -0.15834755	     -3.73519182	      4.05023285	      0.00000000	     -0.00000000	     -0.00000000	     -0.00000000
      2.96000000	     -0.95724135	      4.38772952	    -97.28252113	      0.27478348	      0.84804052	     -0.44156776	     -7.57576216	     -6.55321686	    -39.85462024	    -28.30313794	      0.00000000	     -0.00000000	      0.00000000	     -0.49398295	      4.45953156	     19.75308751	      0.00000000	     31.46928355	     -2.42366802	     -8.34097617	     -9.46250027	      0.00000000	      0.00000000	     -0.00000000	     -0.16515179	     -4.54945714	      2.74425626	      0.00000000	     -0.00000000	     -0.00000000	     -0.00000000
